<svg width="817" height="591" viewBox="0 0 817 591" fill="none" xmlns="http://www.w3.org/2000/svg">
<path d="M403.83 283.656L387.02 328.441M370.209 373.226L387.02 328.441M370.209 373.226L365.614 371.344M370.209 373.226L355.578 392.796M370.209 373.226L422.509 454.516M370.209 373.226L388.84 361.514M331.607 357.419L336.277 384.892M331.607 357.419L365.614 371.344M331.607 357.419L351.998 334.086M331.607 357.419L291.76 454.516M340.947 412.366L336.277 384.892M340.947 412.366L332.445 433.441M340.947 412.366L422.509 454.516M340.947 412.366L355.578 392.796M291.76 534.301L316.353 473.333M291.76 534.301L351.998 503.817M291.76 534.301H339.701M291.76 534.301L398.85 590M291.76 534.301V454.516M387.643 534.301L407.566 548.226M387.643 534.301L422.509 454.516M387.643 534.301L369.82 519.059M387.643 534.301L398.85 590M387.643 534.301H339.701M467.337 590L427.49 562.151M467.337 590L487.261 562.151M467.337 590L457.375 562.151M467.337 590H398.85M467.337 590L545.164 534.301M507.184 534.301H545.164M507.184 534.301L487.261 562.151M507.184 534.301L503.717 507.957M545.164 534.301L517.457 468.065M545.164 534.301V412.366M489.751 401.828L422.509 454.516M489.751 401.828L492.425 422.151M489.751 401.828L503.604 434.946M517.457 468.065L545.164 412.366M517.457 468.065L503.604 434.946M545.164 412.366L432.471 334.086M545.164 412.366L503.604 434.946M432.471 334.086L387.02 328.441M432.471 334.086L421.563 340.943M432.471 334.086L422.509 454.516M432.471 334.086L403.83 276.129M432.471 334.086L449.904 285.538M432.471 334.086L416.905 253.925M387.02 328.441L351.998 334.086M387.02 328.441L370.419 226.64M387.02 328.441L351.687 266.532M316.353 473.333L291.76 454.516M316.353 473.333L422.509 454.516M316.353 473.333L323.944 454.516M316.353 473.333L334.176 488.575M351.998 503.817L369.82 519.059M351.998 503.817L422.509 454.516M351.998 503.817L334.176 488.575M336.277 384.892L291.76 454.516M300.477 88.7097L316.353 204.624M300.477 88.7097L351.998 39.7849M300.477 88.7097L270.591 130.108M300.477 88.7097L322.891 19M316.353 204.624L351.998 199.355M316.353 204.624L270.591 130.108M316.353 204.624L334.176 122.204M316.353 204.624L403.83 276.129M316.353 204.624L351.687 266.532M351.998 39.7849L388.84 19M351.998 39.7849L334.176 122.204M432.471 30L489.751 135.376V199.355M489.751 199.355L467.337 236.989M489.751 199.355L517.457 130.108M467.337 236.989H422.509M467.337 236.989L517.457 194.839M467.337 236.989L449.904 285.538M467.337 236.989L416.905 253.925M422.509 236.989L416.905 253.925M422.509 236.989L398.85 130.108M416.905 253.925L403.83 276.129M416.905 253.925L398.85 130.108M416.905 253.925L449.904 285.538M403.83 276.129L398.85 130.108M403.83 276.129L388.84 253.925M403.83 276.129L351.687 266.532M403.83 276.129L449.904 285.538M351.998 199.355L361.208 212.997M351.998 199.355L398.85 130.108M427.49 562.151H457.375M427.49 562.151L422.509 454.516M427.49 562.151L407.566 548.226M487.261 562.151H457.375M457.375 562.151L473.563 543.22M457.375 562.151L422.509 454.516M42.0924 209.892L73.8457 204.624L93.7693 230.968M42.0924 209.892L24.0367 286.667M42.0924 209.892L66.9969 177.527M42.0924 209.892L1 269.355M42.0924 209.892L29.6402 177.527M24.0367 286.667L50.1864 330.323M24.0367 286.667L29.6402 177.527M24.0367 286.667L10.9618 306.989M50.1864 330.323H103.731M50.1864 330.323L10.9618 306.989M103.731 330.323L126.145 377.742M103.731 330.323L57.6578 338.978M103.731 330.323V377.742M126.145 377.742L66.9969 442.473M126.145 377.742L58.903 422.151M66.9969 442.473H4.11306M66.9969 442.473L103.731 377.742M66.9969 442.473L10.9618 422.151M4.11306 442.473L10.9618 422.151M4.11306 442.473L58.903 422.151M10.9618 422.151H58.903M58.903 422.151L103.731 377.742M103.731 377.742L88.1658 348.763L57.6578 338.978M57.6578 338.978L10.9618 306.989M10.9618 306.989L1 269.355M1 269.355L29.6402 177.527M29.6402 177.527H66.9969M66.9969 177.527L103.731 197.849M66.9969 177.527L93.7693 230.968M103.731 197.849L119.296 233.226L113.693 257.312L93.7693 230.968M103.731 197.849L93.7693 230.968M554.503 184.301L555.848 220.43M561.974 384.892V401.828M561.974 384.892L587.223 371.344M561.974 384.892L561.151 362.782M561.974 401.828H588.746M561.974 401.828L585.7 340.86M588.746 401.828L560.327 340.672M588.746 401.828L587.223 371.344M577.539 177.527H554.503L555.176 198.979M577.539 177.527L555.848 220.43M577.539 177.527L578.78 202.366M577.539 177.527L598.086 184.301M555.848 220.43L555.176 198.979M555.848 220.43L580.51 236.989M555.848 220.43L557.278 258.817M580.021 227.204L555.176 198.979M580.021 227.204L580.51 236.989M580.021 227.204L578.78 202.366M580.51 236.989V276.129L557.278 258.817M580.51 236.989L557.278 258.817M580.51 236.989L582.334 273.495M557.278 258.817L558.68 296.452M558.68 296.452L584.158 310M558.68 296.452L582.334 273.495M558.68 296.452L585.7 340.86M558.68 296.452L560.327 340.672M584.158 310L582.334 273.495M584.158 310L585.7 340.86M584.158 310L560.327 340.672M585.7 340.86L560.327 340.672M585.7 340.86L587.223 371.344M560.327 340.672L561.151 362.782M587.223 371.344L561.151 362.782M578.78 202.366L587.223 225.884M650.385 401.828H672.799M650.385 401.828L636.045 361.882M650.385 401.828V371.25M672.799 401.828V345.753M672.799 401.828L650.385 371.25M650.385 177.527H672.799V210.645M650.385 177.527V225.511M650.385 177.527L672.799 250.161M598.086 184.301L587.223 225.884M598.086 184.301L599.046 258.817M598.086 184.301L624.235 262.487M650.385 340.672L624.235 262.487M650.385 340.672L636.045 361.882M650.385 340.672V371.25M650.385 340.672L672.799 289.677M650.385 340.672V303.226M587.223 225.884L599.046 258.817M599.046 258.817L624.235 262.487M599.046 258.817L612.556 296.452M624.235 262.487L612.556 296.452M624.235 262.487L621.705 321.936M624.235 262.487L636.045 361.882M612.556 296.452L621.705 321.936M621.705 321.936L636.045 361.882M650.385 371.25L672.799 289.677M650.385 371.25L672.799 345.753M672.799 289.677V345.753M672.799 289.677L650.385 303.226M672.799 289.677L650.385 273.495M672.799 289.677L650.385 225.511M672.799 289.677V250.161M650.385 303.226V273.495M650.385 273.495V225.511M650.385 225.511L672.799 210.645M672.799 210.645V250.161M351.998 334.086L365.614 371.344M786.737 236.989L781.134 184.301M786.737 236.989H768.059V202.366M786.737 236.989L768.059 202.366M781.134 184.301L744.4 166.989M781.134 184.301L744.4 198.979M744.4 166.989L708.288 184.301M744.4 166.989L724.476 202.366M708.288 184.301L692.723 236.989M708.288 184.301L718.872 236.989M692.723 236.989V289.677M692.723 236.989L718.872 296.452M692.723 289.677L699.571 357.419M692.723 289.677L724.476 340.672M692.723 289.677L718.872 236.989M699.571 357.419L724.476 384.892M699.571 357.419L735.06 362.782M699.571 357.419L718.872 296.452M724.476 384.892L768.059 395.054H794.831M724.476 384.892L735.06 362.782M724.476 384.892V340.672M724.476 384.892L781.134 373.226M794.831 395.054L816 362.782M794.831 395.054L735.06 362.782M816 362.782V310H794.831M816 362.782L794.831 310M816 362.782L781.134 373.226M816 362.782L794.831 357.419M794.831 310V357.419M794.831 357.419L781.134 373.226M781.134 373.226L735.06 362.782M735.06 362.782L724.476 340.672M724.476 340.672L718.872 296.452M718.872 296.452V236.989M718.872 236.989L724.476 202.366M724.476 202.366L744.4 198.979M744.4 198.979L768.059 202.366M154.163 177.527H126.145L132.994 194.839L140.141 215.726M154.163 177.527L168.026 223.441M154.163 177.527L140.141 215.726M191.208 300.215L200.299 330.323M191.208 300.215L177.544 325.03M191.208 300.215L207.417 269.355M191.208 300.215L181.89 269.355M255.649 177.527H270.591L262.357 215.726M255.649 177.527L231.533 223.441M255.649 177.527L262.357 215.726M200.299 330.323L188.241 356.29L177.544 325.03M200.299 330.323L207.417 269.355M200.299 330.323L241.671 253.925M200.299 330.323V376.237M177.544 325.03L181.89 269.355M177.544 325.03L155.269 259.934M177.544 325.03V357.401M177.544 454.516H200.299V376.237M177.544 454.516L200.299 422.151M177.544 454.516V422.145M207.417 269.355L241.671 253.925M207.417 269.355L231.533 223.441M241.671 253.925L231.533 223.441M241.671 253.925L262.357 215.726M231.533 223.441L262.357 215.726M181.89 269.355L155.269 259.934M181.89 269.355L168.026 223.441M155.269 259.934L168.026 223.441M155.269 259.934L140.141 215.726M168.026 223.441L140.141 215.726M200.299 422.151L177.544 389.773M200.299 422.151V376.237M177.544 389.773V422.145M177.544 389.773V357.401M200.299 376.237L177.544 422.145M200.299 376.237L177.544 357.401M398.85 130.108L322.891 146.667L270.591 130.108M398.85 130.108L331.607 121.075L340.947 99.2473L398.85 130.108ZM398.85 130.108L351.998 88.7097M398.85 130.108L359.002 62.3656M398.85 130.108L370.209 39.7849M398.85 130.108L376.435 30M398.85 130.108V30M398.85 130.108L416.905 30M398.85 130.108L440.565 39.7849M398.85 130.108L451.772 62.3656M398.85 130.108L463.601 82.6882M398.85 130.108L473.563 108.28M398.85 130.108L487.261 135.376M398.85 130.108L473.563 160.215M398.85 130.108L457.375 184.301M398.85 130.108L463.601 177.527M398.85 130.108L451.772 199.355M398.85 130.108L440.565 209.892M398.85 130.108L432.471 220.43M398.85 130.108L388.84 253.925M398.85 130.108L370.419 226.64M398.85 130.108L379.629 240.282M398.85 130.108L361.208 212.997M398.85 130.108L340.947 184.301M398.85 130.108L331.607 166.989M487.261 135.376L517.457 130.108M487.261 135.376L492.425 50.5M487.261 135.376L517.457 194.839M388.84 253.925L379.629 240.282M370.419 226.64L379.629 240.282M370.419 226.64L361.208 212.997M422.509 454.516H323.944M422.509 454.516L332.445 433.441M422.509 454.516L355.578 392.796M422.509 454.516L388.84 361.514M422.509 454.516L410.655 347.8M422.509 454.516L421.563 340.943M422.509 454.516L446.168 348.763M422.509 454.516L457.375 362.782M422.509 454.516L473.563 377.742M422.509 454.516L480.412 392.796M422.509 454.516L492.425 422.151M422.509 454.516L495.1 442.473M422.509 454.516H496.685M422.509 454.516L498.468 468.065M422.509 454.516L500.251 481.613M422.509 454.516L503.717 507.957M422.509 454.516L489.751 524.29M422.509 454.516L473.563 543.22M422.509 454.516L407.566 548.226M422.509 454.516L369.82 519.059M422.509 454.516L334.176 488.575M323.944 454.516L332.445 433.441M388.84 361.514L410.655 347.8M410.655 347.8L421.563 340.943M492.425 422.151L495.1 442.473M495.1 442.473L496.685 454.516M496.685 454.516L498.468 468.065M498.468 468.065L500.251 481.613M500.251 481.613L503.717 507.957M503.717 507.957L489.751 524.29M489.751 524.29L473.563 543.22M398.85 590L339.701 534.301M388.84 19L440.565 30M388.84 19L446.168 0.5M388.84 19H355.865M440.565 30L492.425 50.5M440.565 30L517.457 130.108M440.565 30L446.168 0.5M492.425 50.5L517.457 130.108M492.425 50.5L446.168 0.5M517.457 130.108V194.839M322.891 19L334.176 122.204M322.891 19H355.865M446.168 0.5H410.655L355.865 19" stroke="#00F0FF"/>
</svg>
